<svg width="1280" height="640" viewBox="0 0 1280 640" fill="none" xmlns="http://www.w3.org/2000/svg">
  <defs>
    <linearGradient id="bg" x1="0" y1="0" x2="1280" y2="640" gradientUnits="userSpaceOnUse">
      <stop stop-color="#0B0F14"/>
      <stop offset="1" stop-color="#121922"/>
    </linearGradient>
    <linearGradient id="accent" x1="0" y1="0" x2="1" y2="1">
      <stop stop-color="#7DD3FC"/>
      <stop offset="1" stop-color="#60A5FA"/>
    </linearGradient>
    <linearGradient id="amber" x1="0" y1="0" x2="1" y2="1">
      <stop stop-color="#FBBF24"/>
      <stop offset="1" stop-color="#FB923C"/>
    </linearGradient>
    <filter id="shadow" x="0" y="0" width="1280" height="640" filterUnits="userSpaceOnUse" color-interpolation-filters="sRGB">
      <feDropShadow dx="0" dy="12" stdDeviation="24" flood-color="#000000" flood-opacity="0.25"/>
    </filter>
  </defs>

  <rect width="1280" height="640" fill="url(#bg)"/>

  <g opacity="0.16">
    <path d="M80 0V640" stroke="#94A3B8" stroke-width="1"/>
    <path d="M320 0V640" stroke="#94A3B8" stroke-width="1"/>
    <path d="M560 0V640" stroke="#94A3B8" stroke-width="1"/>
    <path d="M800 0V640" stroke="#94A3B8" stroke-width="1"/>
    <path d="M1040 0V640" stroke="#94A3B8" stroke-width="1"/>
    <path d="M0 96H1280" stroke="#94A3B8" stroke-width="1"/>
    <path d="M0 256H1280" stroke="#94A3B8" stroke-width="1"/>
    <path d="M0 416H1280" stroke="#94A3B8" stroke-width="1"/>
    <path d="M0 576H1280" stroke="#94A3B8" stroke-width="1"/>
  </g>

  <rect x="60" y="56" width="1160" height="528" rx="28" fill="#0F1720" stroke="#243244" stroke-width="1.5" filter="url(#shadow)"/>

  <g opacity="0.9">
    <rect x="96" y="96" width="490" height="52" rx="14" fill="#121D29" stroke="#25364B"/>
    <circle cx="126" cy="122" r="6" fill="#334155"/>
    <circle cx="148" cy="122" r="6" fill="#334155"/>
    <circle cx="170" cy="122" r="6" fill="#334155"/>
    <rect x="196" y="113" width="220" height="18" rx="9" fill="#1E293B"/>
    <rect x="430" y="113" width="126" height="18" rx="9" fill="#0F172A" stroke="#334155"/>
  </g>

  <g>
    <rect x="96" y="182" width="510" height="286" rx="24" fill="#0B1320" stroke="#233247"/>
    <text x="126" y="244" fill="#E2E8F0" font-family="Inter, Arial, sans-serif" font-size="60" font-weight="700">Hermes</text>
    <text x="126" y="308" fill="#E2E8F0" font-family="Inter, Arial, sans-serif" font-size="60" font-weight="700">Rules Kit</text>
    <text x="126" y="362" fill="#94A3B8" font-family="Inter, Arial, sans-serif" font-size="24" font-weight="500">Hermes-native execution rules, templates, and skills</text>

    <g transform="translate(126 404)">
      <rect width="168" height="34" rx="17" fill="#132030" stroke="#2C425D"/>
      <text x="20" y="22" fill="#7DD3FC" font-family="Inter, Arial, sans-serif" font-size="16" font-weight="600">tool-grounded</text>
    </g>
    <g transform="translate(306 404)">
      <rect width="134" height="34" rx="17" fill="#132030" stroke="#2C425D"/>
      <text x="20" y="22" fill="#7DD3FC" font-family="Inter, Arial, sans-serif" font-size="16" font-weight="600">verified</text>
    </g>
    <g transform="translate(452 404)">
      <rect width="120" height="34" rx="17" fill="#231A10" stroke="#5C4720"/>
      <text x="20" y="22" fill="#FBBF24" font-family="Inter, Arial, sans-serif" font-size="16" font-weight="600">root-cause</text>
    </g>
  </g>

  <g>
    <rect x="640" y="96" width="524" height="150" rx="22" fill="#111A26" stroke="#223247"/>
    <text x="672" y="138" fill="#7DD3FC" font-family="IBM Plex Mono, monospace" font-size="17">status model</text>
    <text x="672" y="178" fill="#E2E8F0" font-family="IBM Plex Mono, monospace" font-size="22">changed  verified  unverified  blocked</text>
    <text x="672" y="212" fill="#94A3B8" font-family="IBM Plex Mono, monospace" font-size="18">assumption  multimodal-grounded</text>
  </g>

  <g>
    <rect x="640" y="268" width="250" height="132" rx="22" fill="#111A26" stroke="#223247"/>
    <text x="670" y="308" fill="#7DD3FC" font-family="Inter, Arial, sans-serif" font-size="18" font-weight="600">verification</text>
    <path d="M674 350L706 382L780 318" stroke="url(#accent)" stroke-width="10" stroke-linecap="round" stroke-linejoin="round"/>
    <rect x="804" y="322" width="52" height="52" rx="16" fill="#132030" stroke="#2C425D"/>
    <path d="M820 348H840" stroke="#7DD3FC" stroke-width="4" stroke-linecap="round"/>
    <path d="M820 362H854" stroke="#7DD3FC" stroke-width="4" stroke-linecap="round"/>
  </g>

  <g>
    <rect x="914" y="268" width="250" height="132" rx="22" fill="#111A26" stroke="#223247"/>
    <text x="944" y="308" fill="#FBBF24" font-family="Inter, Arial, sans-serif" font-size="18" font-weight="600">research</text>
    <path d="M954 356H1126" stroke="#334155" stroke-width="2"/>
    <path d="M954 372H1092" stroke="#334155" stroke-width="2"/>
    <path d="M954 388H1110" stroke="#334155" stroke-width="2"/>
    <circle cx="1106" cy="340" r="18" fill="#131D2A" stroke="#2D415A"/>
    <path d="M1102 340L1110 348L1124 332" stroke="url(#amber)" stroke-width="4" stroke-linecap="round" stroke-linejoin="round"/>
  </g>

  <g>
    <rect x="640" y="422" width="524" height="122" rx="22" fill="#0E1722" stroke="#223247"/>
    <text x="672" y="462" fill="#7DD3FC" font-family="IBM Plex Mono, monospace" font-size="16">$ read_file → patch → terminal → browser → verify</text>
    <text x="672" y="498" fill="#94A3B8" font-family="Inter, Arial, sans-serif" font-size="22">Execution framework for grounded coding, verification,</text>
    <text x="672" y="528" fill="#94A3B8" font-family="Inter, Arial, sans-serif" font-size="22">research, and multimodal proof workflows.</text>
  </g>

  <g opacity="0.85">
    <path d="M1136 78L1170 78" stroke="#FBBF24" stroke-width="3" stroke-linecap="round"/>
    <path d="M1153 61L1153 95" stroke="#FBBF24" stroke-width="3" stroke-linecap="round"/>
    <circle cx="1153" cy="78" r="24" stroke="#FBBF24" stroke-width="2" opacity="0.6"/>
  </g>
</svg>
